<?xml version="1.0" encoding="UTF-8" standalone="no"?><svg xmlns="http://www.w3.org/2000/svg" xmlns:xlink="http://www.w3.org/1999/xlink" contentStyleType="text/css" height="1264px" preserveAspectRatio="none" style="width:2927px;height:1264px;background:#FFFFFF;" version="1.1" viewBox="0 0 2927 1264" width="2927px" zoomAndPan="magnify"><defs/><g><ellipse cx="1460.5" cy="16" fill="#222222" rx="10" ry="10" style="stroke:none;stroke-width:1.0;"/><path d="M19.5,86 L2901.99,86 A12.5,12.5 0 0 1 2914.49,98.5 L2914.49,113.6094 L7,113.6094 L7,98.5 A12.5,12.5 0 0 1 19.5,86 " fill="#F1F1F1" style="stroke:#F1F1F1;stroke-width:1.0;"/><rect fill="none" height="1145.4375" rx="12.5" ry="12.5" style="stroke:#181818;stroke-width:0.5;" width="2907.49" x="7" y="86"/><line style="stroke:#181818;stroke-width:0.5;" x1="7" x2="2914.49" y1="113.6094" y2="113.6094"/><text fill="#000000" font-family="sans-serif" font-size="14" lengthAdjust="spacing" textLength="73" x="1424.245" y="105.5332">Plant_State</text><ellipse cx="1361.49" cy="134.6094" fill="#222222" rx="10" ry="10" style="stroke:none;stroke-width:1.0;"/><g id="Plant_State.Germination"><rect fill="#F1F1F1" height="108.0469" rx="12.5" ry="12.5" style="stroke:#181818;stroke-width:0.5;" width="97" x="1312.99" y="181.6094"/><line style="stroke:#181818;stroke-width:0.5;" x1="1312.99" x2="1409.99" y1="209.2188" y2="209.2188"/><text fill="#000000" font-family="sans-serif" font-size="14" lengthAdjust="spacing" textLength="77" x="1322.99" y="201.1426">Germination</text><text fill="#000000" font-family="sans-serif" font-size="14" lengthAdjust="spacing" textLength="56" x="1317.99" y="228.752">entry / ...</text><text fill="#000000" font-family="sans-serif" font-size="14" lengthAdjust="spacing" textLength="4" x="1317.99" y="246.3613"> </text><text fill="#000000" font-family="sans-serif" font-size="14" lengthAdjust="spacing" textLength="45" x="1317.99" y="263.9707">exit / ...</text><text fill="#000000" font-family="sans-serif" font-size="14" lengthAdjust="spacing" textLength="4" x="1317.99" y="281.5801"> </text></g><g id="Plant_State.Germination.Seedling"><rect fill="#F1F1F1" height="108.0469" rx="12.5" ry="12.5" style="stroke:#181818;stroke-width:0.5;" width="76" x="1323.49" y="470.6094"/><line style="stroke:#181818;stroke-width:0.5;" x1="1323.49" x2="1399.49" y1="498.2188" y2="498.2188"/><text fill="#000000" font-family="sans-serif" font-size="14" lengthAdjust="spacing" textLength="55" x="1333.99" y="490.1426">Seedling</text><text fill="#000000" font-family="sans-serif" font-size="14" lengthAdjust="spacing" textLength="56" x="1328.49" y="517.752">entry / ...</text><text fill="#000000" font-family="sans-serif" font-size="14" lengthAdjust="spacing" textLength="4" x="1328.49" y="535.3613"> </text><text fill="#000000" font-family="sans-serif" font-size="14" lengthAdjust="spacing" textLength="45" x="1328.49" y="552.9707">exit / ...</text><text fill="#000000" font-family="sans-serif" font-size="14" lengthAdjust="spacing" textLength="4" x="1328.49" y="570.5801"> </text></g><g id="Plant_State.Seedling.Growing"><rect fill="#F1F1F1" height="72.8281" rx="12.5" ry="12.5" style="stroke:#181818;stroke-width:0.5;" width="76" x="976.49" y="763.6094"/><line style="stroke:#181818;stroke-width:0.5;" x1="976.49" x2="1052.49" y1="791.2188" y2="791.2188"/><text fill="#000000" font-family="sans-serif" font-size="14" lengthAdjust="spacing" textLength="52" x="988.49" y="783.1426">Growing</text><text fill="#000000" font-family="sans-serif" font-size="14" lengthAdjust="spacing" textLength="56" x="981.49" y="810.752">entry / ...</text><text fill="#000000" font-family="sans-serif" font-size="14" lengthAdjust="spacing" textLength="4" x="981.49" y="828.3613"> </text></g><g id="Plant_State.Growing.Fruting"><rect fill="#F1F1F1" height="72.8281" rx="12.5" ry="12.5" style="stroke:#181818;stroke-width:0.5;" width="76" x="369.49" y="1021.6094"/><line style="stroke:#181818;stroke-width:0.5;" x1="369.49" x2="445.49" y1="1049.2188" y2="1049.2188"/><text fill="#000000" font-family="sans-serif" font-size="14" lengthAdjust="spacing" textLength="45" x="384.99" y="1041.1426">Fruting</text><text fill="#000000" font-family="sans-serif" font-size="14" lengthAdjust="spacing" textLength="56" x="374.49" y="1068.752">entry / ...</text><text fill="#000000" font-family="sans-serif" font-size="14" lengthAdjust="spacing" textLength="4" x="374.49" y="1086.3613"> </text></g><g id="Plant_State.Germination.Dying_During_Germination"><rect fill="#F1F1F1" height="72.8281" rx="12.5" ry="12.5" style="stroke:#181818;stroke-width:0.5;" width="191" x="1661.99" y="343.6094"/><line style="stroke:#181818;stroke-width:0.5;" x1="1661.99" x2="1852.99" y1="371.2188" y2="371.2188"/><text fill="#000000" font-family="sans-serif" font-size="14" lengthAdjust="spacing" textLength="171" x="1671.99" y="363.1426">Dying_During_Germination</text><text fill="#000000" font-family="sans-serif" font-size="14" lengthAdjust="spacing" textLength="56" x="1666.99" y="390.752">entry / ...</text><text fill="#000000" font-family="sans-serif" font-size="14" lengthAdjust="spacing" textLength="4" x="1666.99" y="408.3613"> </text></g><g id="Plant_State.Seedling.Dying_During_Seedling"><rect fill="#F1F1F1" height="72.8281" rx="12.5" ry="12.5" style="stroke:#181818;stroke-width:0.5;" width="169" x="1346.99" y="763.6094"/><line style="stroke:#181818;stroke-width:0.5;" x1="1346.99" x2="1515.99" y1="791.2188" y2="791.2188"/><text fill="#000000" font-family="sans-serif" font-size="14" lengthAdjust="spacing" textLength="149" x="1356.99" y="783.1426">Dying_During_Seedling</text><text fill="#000000" font-family="sans-serif" font-size="14" lengthAdjust="spacing" textLength="56" x="1351.99" y="810.752">entry / ...</text><text fill="#000000" font-family="sans-serif" font-size="14" lengthAdjust="spacing" textLength="4" x="1351.99" y="828.3613"> </text></g><g id="Plant_State.Growing.Dying_During_Growing"><rect fill="#F1F1F1" height="72.8281" rx="12.5" ry="12.5" style="stroke:#181818;stroke-width:0.5;" width="166" x="1542.49" y="1021.6094"/><line style="stroke:#181818;stroke-width:0.5;" x1="1542.49" x2="1708.49" y1="1049.2188" y2="1049.2188"/><text fill="#000000" font-family="sans-serif" font-size="14" lengthAdjust="spacing" textLength="146" x="1552.49" y="1041.1426">Dying_During_Growing</text><text fill="#000000" font-family="sans-serif" font-size="14" lengthAdjust="spacing" textLength="56" x="1547.49" y="1068.752">entry / ...</text><text fill="#000000" font-family="sans-serif" font-size="14" lengthAdjust="spacing" textLength="4" x="1547.49" y="1086.3613"> </text></g><g id="Plant_State.Fruting.Dying_During_Fruting"><rect fill="#F1F1F1" height="72.8281" rx="12.5" ry="12.5" style="stroke:#181818;stroke-width:0.5;" width="159" x="327.99" y="1148.6094"/><line style="stroke:#181818;stroke-width:0.5;" x1="327.99" x2="486.99" y1="1176.2188" y2="1176.2188"/><text fill="#000000" font-family="sans-serif" font-size="14" lengthAdjust="spacing" textLength="139" x="337.99" y="1168.1426">Dying_During_Fruting</text><text fill="#000000" font-family="sans-serif" font-size="14" lengthAdjust="spacing" textLength="56" x="332.99" y="1195.752">entry / ...</text><text fill="#000000" font-family="sans-serif" font-size="14" lengthAdjust="spacing" textLength="4" x="332.99" y="1213.3613"> </text></g><!--MD5=[b45261dee2eefab5d09988d696182034]
link Germination to Dying_During_Germination--><g id="link_Germination_Dying_During_Germination"><path d="M1410.05,254.0794 C1471.18,276.0794 1577.75,314.4294 1656.79,342.8794 " fill="none" id="Germination-to-Dying_During_Germination" style="stroke:#181818;stroke-width:1.0;"/><polygon fill="#181818" points="1661.96,344.7294,1654.8505,337.9135,1657.2565,343.0333,1652.1368,345.4392,1661.96,344.7294" style="stroke:#181818;stroke-width:1.0;"/><text fill="#000000" font-family="sans-serif" font-size="13" lengthAdjust="spacing" textLength="162" x="1607.49" y="322.1045">timeout:timer?timer_timeout</text></g><!--MD5=[db0888d630558cc4307bde745b1f2316]
link Germination to Seedling--><g id="link_Germination_Seedling"><path d="M1357.93,289.6494 C1356.93,306.8494 1355.98,326.0294 1355.49,343.6094 C1354.58,376.0394 1354.58,384.1794 1355.49,416.6094 C1355.93,432.3994 1356.74,449.4894 1357.62,465.2694 " fill="none" id="Germination-to-Seedling" style="stroke:#181818;stroke-width:1.0;"/><polygon fill="#181818" points="1357.93,470.5694,1361.41,461.3558,1357.6448,465.5775,1353.4231,461.8122,1357.93,470.5694" style="stroke:#181818;stroke-width:1.0;"/><text fill="#000000" font-family="sans-serif" font-size="13" lengthAdjust="spacing" textLength="296" x="1356.49" y="385.6045">height:from_psm?side_camera_height[height.h &gt; 0]</text></g><!--MD5=[d00feff1499bd123261542c546756e0a]
link Seedling to Dying_During_Seedling--><g id="link_Seedling_Dying_During_Seedling"><path d="M1349.22,578.7894 C1341.31,625.2894 1336.74,693.3594 1362.49,745.6094 C1364.95,750.6094 1368.13,755.2694 1371.77,759.5994 " fill="none" id="Seedling-to-Dying_During_Seedling" style="stroke:#181818;stroke-width:1.0;"/><polygon fill="#181818" points="1375.23,763.4694,1372.2203,754.0916,1371.9002,759.7394,1366.2524,759.4193,1375.23,763.4694" style="stroke:#181818;stroke-width:1.0;"/><text fill="#000000" font-family="sans-serif" font-size="13" lengthAdjust="spacing" textLength="115" x="1363.49" y="676.6045">timer?timer_timeout</text></g><!--MD5=[c40dd50bb305c10686f2f3c03ecc6fad]
link Seedling to Growing--><g id="link_Seedling_Growing"><path d="M1323.42,527.5794 C1241.79,532.6894 1054.17,549.4194 1015.49,596.6094 C978.47,641.7694 989.07,713.5794 1001.08,758.4394 " fill="none" id="Seedling-to-Growing" style="stroke:#181818;stroke-width:1.0;"/><polygon fill="#181818" points="1002.47,763.4994,1003.9586,753.7637,1001.1532,758.6759,996.241,755.8705,1002.47,763.4994" style="stroke:#181818;stroke-width:1.0;"/><text fill="#000000" font-family="sans-serif" font-size="13" lengthAdjust="spacing" textLength="321" x="1016.49" y="611.1045">DGPC:from_psm?dark_green_pixel_count[DGPC.c &gt; 0]</text><text fill="#000000" font-family="sans-serif" font-size="13" lengthAdjust="spacing" textLength="51" x="1016.49" y="627.4561">action ...</text><text fill="#000000" font-family="sans-serif" font-size="13" lengthAdjust="spacing" textLength="4" x="1016.49" y="643.8076"> </text><text fill="#000000" font-family="sans-serif" font-size="13" lengthAdjust="spacing" textLength="277" x="1016.49" y="660.1592">||GPC:from_psm?green_pixel_count[GPC.c &gt; 0]</text><text fill="#000000" font-family="sans-serif" font-size="13" lengthAdjust="spacing" textLength="51" x="1016.49" y="676.5107">action ...</text><text fill="#000000" font-family="sans-serif" font-size="13" lengthAdjust="spacing" textLength="4" x="1016.49" y="692.8623"> </text><text fill="#000000" font-family="sans-serif" font-size="13" lengthAdjust="spacing" textLength="322" x="1016.49" y="709.2139">||LGPC:from_psm?light_green_pixel_count[LGPC.c &gt; 0]</text><text fill="#000000" font-family="sans-serif" font-size="13" lengthAdjust="spacing" textLength="51" x="1016.49" y="725.5654">action ...</text><text fill="#000000" font-family="sans-serif" font-size="13" lengthAdjust="spacing" textLength="4" x="1016.49" y="741.917"> </text></g><!--MD5=[0a15204e82a4649d03b99129dd62a3df]
link Growing to Dying_During_Growing--><g id="link_Growing_Dying_During_Growing"><path d="M1052.91,804.4694 C1113.57,810.5994 1227.43,825.6994 1254.49,854.6094 C1300.28,903.5294 1230.09,956.2394 1277.49,1003.6094 C1313.03,1039.1294 1446.43,1051.0894 1537.35,1055.0994 " fill="none" id="Growing-to-Dying_During_Growing" style="stroke:#181818;stroke-width:1.0;"/><polygon fill="#181818" points="1542.46,1055.3194,1533.6395,1050.9377,1537.4646,1055.1053,1533.297,1058.9303,1542.46,1055.3194" style="stroke:#181818;stroke-width:1.0;"/><text fill="#000000" font-family="sans-serif" font-size="13" lengthAdjust="spacing" textLength="673" x="1278.49" y="934.6045">[green_pixel_sum &lt; current_dark_green_pixel_count + current_green_pixel_count + current_light_green_pixel_count]</text></g><!--MD5=[3b79a4e335444ab801dcfa196114f600]
link Growing to Fruting--><g id="link_Growing_Fruting"><path d="M976.28,801.8094 C802.7,805.1694 95.37,820.8894 63.49,854.6094 C18,902.7294 20.41,953.3094 63.49,1003.6094 C101.72,1048.2494 280.4,1055.9394 364.06,1057.0594 " fill="none" id="Growing-to-Fruting" style="stroke:#181818;stroke-width:1.0;"/><polygon fill="#181818" points="369.43,1057.1194,360.4881,1052.9912,364.4305,1057.048,360.3738,1060.9904,369.43,1057.1194" style="stroke:#181818;stroke-width:1.0;"/><text fill="#000000" font-family="sans-serif" font-size="13" lengthAdjust="spacing" textLength="665" x="64.49" y="934.6045">DGPC:from_psm?dark_green_pixel_count[DGPC.c &gt; current_green_pixel_count + current_light_green_pixel_count]</text></g><!--MD5=[0bb8fff263539d0a5a5bb2396f0d7b7b]
link Fruting to Growing--><g id="link_Fruting_Growing"><path d="M445.65,1056.2094 C522.36,1053.5594 691.27,1043.2594 730.49,1003.6094 C777.61,955.9694 707.28,903.1394 753.49,854.6094 C782.87,823.7594 905.1,809.6094 971.35,804.0894 " fill="none" id="Fruting-to-Growing" style="stroke:#181818;stroke-width:1.0;"/><polygon fill="#181818" points="976.41,803.6794,967.1097,800.4384,971.4272,804.0934,967.7721,808.4109,976.41,803.6794" style="stroke:#181818;stroke-width:1.0;"/><text fill="#000000" font-family="sans-serif" font-size="13" lengthAdjust="spacing" textLength="448" x="754.49" y="893.6045">GPC:from_psm?green_pixel_count[GPC.c &gt; current_dark_green_pixel_count]</text><text fill="#000000" font-family="sans-serif" font-size="13" lengthAdjust="spacing" textLength="51" x="754.49" y="909.9561">action ...</text><text fill="#000000" font-family="sans-serif" font-size="13" lengthAdjust="spacing" textLength="4" x="754.49" y="926.3076"> </text><text fill="#000000" font-family="sans-serif" font-size="13" lengthAdjust="spacing" textLength="499" x="754.49" y="942.6592">||LGPC:from_psm?light_green_pixel_count[LGPC.c &gt; current_dark_green_pixel_count]</text><text fill="#000000" font-family="sans-serif" font-size="13" lengthAdjust="spacing" textLength="51" x="754.49" y="959.0107">action ...</text><text fill="#000000" font-family="sans-serif" font-size="13" lengthAdjust="spacing" textLength="4" x="754.49" y="975.3623"> </text></g><!--MD5=[c44cc496d3f56587974a8f52b1c108f3]
link Fruting to Dying_During_Fruting--><g id="link_Fruting_Dying_During_Fruting"><path d="M407.49,1094.9294 C407.49,1109.9694 407.49,1127.5394 407.49,1143.0894 " fill="none" id="Fruting-to-Dying_During_Fruting" style="stroke:#181818;stroke-width:1.0;"/><polygon fill="#181818" points="407.49,1148.2794,411.49,1139.2794,407.49,1143.2794,403.49,1139.2794,407.49,1148.2794" style="stroke:#181818;stroke-width:1.0;"/><text fill="#000000" font-family="sans-serif" font-size="13" lengthAdjust="spacing" textLength="412" x="408.49" y="1127.1045">DGPC:from_psm?dark_green_pixel_count[DGPC.c &lt; green_pixel_sum]</text></g><!--MD5=[1cc9445cd474bd76676ba58692b32b11]
link Dying_During_Germination to Seedling--><g id="link_Dying_During_Germination_Seedling"><path d="M1661.88,415.5094 C1580.18,444.9094 1466.39,485.8594 1404.96,507.9694 " fill="none" id="Dying_During_Germination-to-Seedling" style="stroke:#181818;stroke-width:1.0;"/><polygon fill="#181818" points="1399.91,509.7794,1409.7332,510.4892,1404.6135,508.0833,1407.0195,502.9635,1399.91,509.7794" style="stroke:#181818;stroke-width:1.0;"/><text fill="#000000" font-family="sans-serif" font-size="13" lengthAdjust="spacing" textLength="296" x="1607.49" y="449.1045">height:from_psm?side_camera_height[height.h &gt; 0]</text></g><!--MD5=[f11436bcdb6ecd88e81825328900b8bb]
link Dying_During_Seedling to Seedling--><g id="link_Dying_During_Seedling_Seedling"><path d="M1469.48,763.4994 C1473.55,757.9194 1477.08,751.8994 1479.49,745.6094 C1503.17,683.7694 1512.08,654.2594 1479.49,596.6094 C1463.54,568.3994 1431.39,550.1494 1404.68,539.2294 " fill="none" id="Dying_During_Seedling-to-Seedling" style="stroke:#181818;stroke-width:1.0;"/><polygon fill="#181818" points="1399.75,537.2794,1406.6394,544.3175,1404.3973,539.124,1409.5908,536.8819,1399.75,537.2794" style="stroke:#181818;stroke-width:1.0;"/><text fill="#000000" font-family="sans-serif" font-size="13" lengthAdjust="spacing" textLength="296" x="1502.49" y="676.6045">height:from_psm?side_camera_height[height.h &gt; 0]</text></g><!--MD5=[b1681fbee841b0a68bb343035e65132d]
link Dying_During_Growing to Growing--><g id="link_Dying_During_Growing_Growing"><path d="M1708.82,1055.3294 C1795.18,1051.5094 1921.81,1039.7194 1952.49,1003.6094 C1995.37,953.1394 1998.63,902.1194 1952.49,854.6094 C1928.68,830.0894 1371.59,838.9794 1337.49,836.6094 C1237.04,829.6294 1119.65,815.1294 1057.77,806.9794 " fill="none" id="Dying_During_Growing-to-Growing" style="stroke:#181818;stroke-width:1.0;"/><polygon fill="#181818" points="1052.69,806.3094,1061.0863,811.4574,1057.6466,806.9665,1062.1376,803.5268,1052.69,806.3094" style="stroke:#181818;stroke-width:1.0;"/><text fill="#000000" font-family="sans-serif" font-size="13" lengthAdjust="spacing" textLength="915" x="1986.49" y="869.1045">DGPC:from_psm?dark_green_pixel_count[green_pixel_sum &lt; current_dark_green_pixel_count + current_green_pixel_count + current_light_green_pixel_count]</text><text fill="#000000" font-family="sans-serif" font-size="13" lengthAdjust="spacing" textLength="51" x="1986.49" y="885.4561">action ...</text><text fill="#000000" font-family="sans-serif" font-size="13" lengthAdjust="spacing" textLength="4" x="1986.49" y="901.8076"> </text><text fill="#000000" font-family="sans-serif" font-size="13" lengthAdjust="spacing" textLength="880" x="1986.49" y="918.1592">||GPC:from_psm?green_pixel_count[green_pixel_sum &lt; current_dark_green_pixel_count + current_green_pixel_count + current_light_green_pixel_count]</text><text fill="#000000" font-family="sans-serif" font-size="13" lengthAdjust="spacing" textLength="51" x="1986.49" y="934.5107">action ...</text><text fill="#000000" font-family="sans-serif" font-size="13" lengthAdjust="spacing" textLength="4" x="1986.49" y="950.8623"> </text><text fill="#000000" font-family="sans-serif" font-size="13" lengthAdjust="spacing" textLength="918" x="1986.49" y="967.2139">||LGPC:from_psm?light_green_pixel_count[green_pixel_sum &lt; current_dark_green_pixel_count + current_green_pixel_count + current_light_green_pixel_count]</text><text fill="#000000" font-family="sans-serif" font-size="13" lengthAdjust="spacing" textLength="51" x="1986.49" y="983.5654">action ...</text><text fill="#000000" font-family="sans-serif" font-size="13" lengthAdjust="spacing" textLength="4" x="1986.49" y="999.917"> </text></g><!--MD5=[3d14f0cabce82518f1592049e895d9e5]
link *start*Plant_State to Germination--><g id="link_*start*Plant_State_Germination"><path d="M1361.49,144.7494 C1361.49,152.3694 1361.49,163.9394 1361.49,176.2694 " fill="none" id="*start*Plant_State-to-Germination" style="stroke:#181818;stroke-width:1.0;"/><polygon fill="#181818" points="1361.49,181.5994,1365.49,172.5994,1361.49,176.5994,1357.49,172.5994,1361.49,181.5994" style="stroke:#181818;stroke-width:1.0;"/></g><!--MD5=[de1f1239fd77fa196912a38eadaf12fa]
link *start to Plant_State--><g id="link_*start_Plant_State"><path d="M1460.5,26.05 C1460.5,36.53 1460.5,55.63 1460.5,80.83 " fill="none" id="*start-to-Plant_State" style="stroke:#181818;stroke-width:1.0;"/><polygon fill="#181818" points="1460.5,85.95,1464.5,76.95,1460.5,80.95,1456.5,76.95,1460.5,85.95" style="stroke:#181818;stroke-width:1.0;"/></g><rect fill="none" height="17.6094" id="_caption" style="stroke:none;stroke-width:1.0;" width="134" x="1386.745" y="1237.4375"/><text fill="#000000" font-family="sans-serif" font-size="14" lengthAdjust="spacing" textLength="134" x="1386.745" y="1251.9707">Behavior of thing PIM</text><!--MD5=[b9e366fc979ec2b896939fc8ac3a99c3]
@startuml
skinparam defaultTextAlignment left
caption Behavior of thing PIM
[*] - -> Plant_State
state Plant_State{
state Germination{
	Germination : entry / ...\n
	Germination : exit / ...\n

Germination - -> Dying_During_Germination : timeout:timer?timer_timeout

Germination - -> Seedling : height:from_psm?side_camera_height[height.h > 0]
}
state Seedling{
	Seedling : entry / ...\n
	Seedling : exit / ...\n

Seedling - -> Dying_During_Seedling : timer?timer_timeout



Seedling - -> Growing : DGPC:from_psm?dark_green_pixel_count[DGPC.c > 0]\naction ...\n\n||GPC:from_psm?green_pixel_count[GPC.c > 0]\naction ...\n\n||LGPC:from_psm?light_green_pixel_count[LGPC.c > 0]\naction ...\n
}
state Growing{
	Growing : entry / ...\n

Growing - -> Dying_During_Growing : [green_pixel_sum < current_dark_green_pixel_count + current_green_pixel_count + current_light_green_pixel_count]

Growing - -> Fruting : DGPC:from_psm?dark_green_pixel_count[DGPC.c > current_green_pixel_count + current_light_green_pixel_count]
}
state Fruting{
	Fruting : entry / ...\n


Fruting - -> Growing : GPC:from_psm?green_pixel_count[GPC.c > current_dark_green_pixel_count]\naction ...\n\n||LGPC:from_psm?light_green_pixel_count[LGPC.c > current_dark_green_pixel_count]\naction ...\n

Fruting - -> Dying_During_Fruting : DGPC:from_psm?dark_green_pixel_count[DGPC.c < green_pixel_sum]
}
state Dying_During_Germination{
	Dying_During_Germination : entry / ...\n

Dying_During_Germination - -> Seedling : height:from_psm?side_camera_height[height.h > 0]
}
state Dying_During_Seedling{
	Dying_During_Seedling : entry / ...\n

Dying_During_Seedling - -> Seedling : height:from_psm?side_camera_height[height.h > 0]
}
state Dying_During_Growing{
	Dying_During_Growing : entry / ...\n



Dying_During_Growing - -> Growing : DGPC:from_psm?dark_green_pixel_count[green_pixel_sum < current_dark_green_pixel_count + current_green_pixel_count + current_light_green_pixel_count]\naction ...\n\n||GPC:from_psm?green_pixel_count[green_pixel_sum < current_dark_green_pixel_count + current_green_pixel_count + current_light_green_pixel_count]\naction ...\n\n||LGPC:from_psm?light_green_pixel_count[green_pixel_sum < current_dark_green_pixel_count + current_green_pixel_count + current_light_green_pixel_count]\naction ...\n
}
state Dying_During_Fruting{
	Dying_During_Fruting : entry / ...\n
}
[*] - -> Germination
}
@enduml

PlantUML version 1.2022.7(Mon Aug 22 19:01:30 CEST 2022)
(GPL source distribution)
Java Runtime: OpenJDK Runtime Environment
JVM: OpenJDK 64-Bit Server VM
Default Encoding: Cp1252
Language: no
Country: NO
--></g></svg>